<?xml version="1.0" encoding="iso-8859-1"?>
<!-- Generator: Adobe Illustrator 19.0.0, SVG Export Plug-In . SVG Version: 6.00 Build 0)  -->
<svg version="1.1" id="Layer_1" xmlns="http://www.w3.org/2000/svg" xmlns:xlink="http://www.w3.org/1999/xlink" x="0px" y="0px"
	 viewBox="0 0 512 512" style="enable-background:new 0 0 512 512;" xml:space="preserve">
<path d="M71.394,226.422c-5.632,0-10.199-4.566-10.199-10.199c0-59.369,26.589-114.762,72.951-151.98
	c4.392-3.526,10.811-2.824,14.338,1.569s2.825,10.812-1.569,14.339c-41.513,33.325-65.322,82.922-65.322,136.073
	C81.594,221.856,77.026,226.422,71.394,226.422z"/>
<path d="M82.061,288.379c-4.192,0-8.121-2.605-9.608-6.78c-2.349-6.593-4.358-13.381-5.975-20.178
	c-1.303-5.48,2.083-10.979,7.563-12.282c5.473-1.303,10.978,2.082,12.282,7.563c1.446,6.08,3.245,12.154,5.345,18.055
	c1.891,5.307-0.879,11.14-6.185,13.029C84.351,288.188,83.196,288.379,82.061,288.379z"/>
<path d="M46.915,323.531c-3.845,0-7.526-2.185-9.254-5.899c-14.839-31.896-22.363-66.014-22.363-101.409
	c0-71.317,31.371-138.545,86.067-184.447c4.316-3.62,10.748-3.059,14.37,1.257c3.621,4.314,3.059,10.748-1.256,14.369
	C64.412,89.417,35.697,150.95,35.697,216.223c0,32.4,6.883,63.623,20.459,92.804c2.376,5.108,0.162,11.174-4.946,13.55
	C49.819,323.224,48.355,323.531,46.915,323.531z"/>
<path d="M429.939,288.379c-1.136,0-2.291-0.192-3.422-0.595c-5.307-1.891-8.076-7.724-6.185-13.031
	c6.685-18.769,10.074-38.461,10.074-58.531c0-53.151-23.809-102.748-65.322-136.074c-4.394-3.527-5.096-9.945-1.569-14.339
	c3.525-4.394,9.946-5.095,14.338-1.569c46.361,37.219,72.951,92.613,72.951,151.981c0,22.409-3.788,44.405-11.258,65.376
	C438.06,285.773,434.131,288.379,429.939,288.379z"/>
<path d="M414.085,58.692c-2.51,0-5.024-0.92-6.995-2.778c-3.091-2.915-6.311-5.78-9.569-8.514
	c-4.314-3.622-4.876-10.054-1.255-14.37c3.621-4.314,10.054-4.875,14.369-1.254c3.556,2.985,7.073,6.113,10.449,9.297
	c4.099,3.864,4.288,10.32,0.424,14.418C419.501,57.618,416.796,58.692,414.085,58.692z"/>
<path d="M465.085,323.531c-1.44,0-2.904-0.307-4.295-0.955c-5.108-2.376-7.322-8.442-4.946-13.55
	c13.575-29.181,20.459-60.404,20.459-92.804c0-47.41-14.832-92.576-42.893-130.615c-3.343-4.534-2.379-10.919,2.153-14.263
	s10.919-2.379,14.262,2.153c30.667,41.572,46.877,90.925,46.877,142.725c0,35.394-7.524,69.513-22.363,101.409
	C472.611,321.346,468.93,323.531,465.085,323.531z"/>
<path style="fill:#D1392A;" d="M227.908,75.412c0-15.515,12.577-28.092,28.092-28.092s28.092,12.577,28.092,28.092
	c0,1.302-0.096,2.581-0.267,3.837c12.467,2.575,24.317,6.845,35.308,12.557c1.356-5.238,2.081-10.732,2.081-16.394
	c0-36.016-29.197-65.213-65.213-65.213s-65.213,29.196-65.213,65.213c0,5.602,0.708,11.039,2.037,16.227
	c11.008-5.655,22.872-9.88,35.347-12.426C228.003,77.969,227.908,76.702,227.908,75.412z"/>
<path style="fill:#FFBC52;" d="M394.451,302.15v-85.959c0-53.911-30.534-101.11-75.319-124.385
	c-10.991-5.713-22.841-9.981-35.308-12.557c-8.962-1.851-18.242-2.829-27.753-2.834c-9.557-0.005-18.888,0.959-27.9,2.798
	c-12.476,2.546-24.339,6.771-35.347,12.426c-44.696,22.96-75.275,69.522-75.275,123.227v87.285
	c0,49.286-39.954,148.484-89.24,148.484H483.69C434.405,450.634,394.451,351.436,394.451,302.15z"/>
<path style="fill:#EDEDED;" d="M204.834,450.634c0,28.258,22.907,51.166,51.166,51.166s51.166-22.908,51.166-51.166H204.834z"/>
<path d="M483.691,440.435c-39.202,0-79.041-88.716-79.041-138.284v-85.96c0-27.968-7.74-55.299-22.383-79.036
	c-12.912-20.93-30.685-38.299-51.679-50.639c0.543-3.668,0.824-7.38,0.824-11.104C331.411,33.83,297.582,0,256,0
	s-75.412,33.83-75.412,75.412c0,3.651,0.271,7.29,0.792,10.887c-45.851,26.596-74.031,75.161-74.031,128.567v87.285
	c0,49.568-39.84,138.284-79.041,138.284c-5.633,0-10.199,4.566-10.199,10.199s4.566,10.199,10.199,10.199h167.188
	C200.372,489.831,225.639,512,256,512s55.629-22.169,60.502-51.166h167.189c5.632,0,10.199-4.566,10.199-10.199
	C493.89,445.001,489.324,440.435,483.691,440.435z M256,20.398c30.334,0,55.012,24.679,55.012,55.013
	c0,0.479-0.006,0.958-0.019,1.436l0.027,0.027c-5.548-2.238-11.226-4.128-17.004-5.67l0.043-0.009
	c-2.104-19.137-18.37-34.075-38.058-34.075c-19.668,0-35.92,14.906-38.053,34.013l0.034,0.011
	c-5.777,1.525-11.456,3.394-17.005,5.608l0.028-0.027c-0.01-0.439-0.015-0.876-0.015-1.316
	C200.987,45.077,225.666,20.398,256,20.398z M271.816,67.069c-5.221-0.56-10.48-0.851-15.739-0.853
	c-5.315-0.002-10.621,0.285-15.887,0.841c3.007-5.666,8.962-9.538,15.811-9.538C262.853,57.519,268.811,61.396,271.816,67.069z
	 M256,491.602c-19.069,0-35.138-13.097-39.683-30.768h79.365C291.137,478.505,275.069,491.602,256,491.602z M307.166,440.435
	H204.834H71.41c10.362-10.107,20.169-23.828,29.044-40.844c16.325-31.298,27.294-70.456,27.294-97.441v-87.285
	c0-48.317,26.722-92.058,69.737-114.155c10.343-5.314,21.354-9.184,32.726-11.505c8.431-1.721,17.106-2.593,25.789-2.593
	c0.021,0,0.044,0,0.066,0c8.648,0.004,17.292,0.887,25.694,2.623c11.358,2.347,22.348,6.255,32.669,11.619
	c43.068,22.383,69.823,66.576,69.823,115.336v85.96c0,26.985,10.969,66.143,27.294,97.441c8.875,17.015,18.682,30.736,29.045,40.844
	H307.166V440.435z"/>
<path d="M156.836,289.169c-5.633,0-10.199-4.566-10.199-10.199v-62.515c0-41.198,22.781-78.492,59.453-97.332
	c5.013-2.573,11.159-0.599,13.732,4.412c2.573,5.011,0.599,11.158-4.412,13.732c-29.839,15.328-48.376,45.672-48.376,79.188v62.515
	C167.035,284.603,162.469,289.169,156.836,289.169z"/>
<path d="M275.939,129.522c-0.684,0-1.379-0.069-2.075-0.213c-5.827-1.204-11.822-1.815-17.818-1.819
	c-5.633-0.003-10.197-4.571-10.194-10.204c0.003-5.631,4.569-10.194,10.199-10.194c0.002,0,0.003,0,0.005,0
	c7.377,0.004,14.757,0.758,21.935,2.241c5.516,1.139,9.065,6.536,7.925,12.051C284.92,126.205,280.674,129.522,275.939,129.522z"/>
<g>
</g>
<g>
</g>
<g>
</g>
<g>
</g>
<g>
</g>
<g>
</g>
<g>
</g>
<g>
</g>
<g>
</g>
<g>
</g>
<g>
</g>
<g>
</g>
<g>
</g>
<g>
</g>
<g>
</g>
</svg>
